Simulation
nRows=40
nColumns=15
endheader
time  TH_x TH_y TH_z SC_y  SC_z  SC_x  AC_y  AC_z  AC_x  GH_y  GH_z  GH_yy  EL_x  PS_y
0.0  0.000000  0.000000  0.000000  -40.97484877243665  6.293857566463187  5.290427962726946  48.108840096586775  1.3903285245664156  2.281416209108532  -65.55738355954543  2.1638969623332027  86.8237002601199  22.587879592720565  120.000000
0.05745  0.000000  0.000000  0.000000  -40.36475543509446  5.081856542504917  3.279841592992435  48.087802738774776  2.460904638277861  2.5777673807806356  -44.957459610600516  4.273187243762639  65.62408173987322  22.0024670176907  120.000000
0.1149  0.000000  0.000000  0.000000  -39.77821724909506  3.757335590184221  1.3366223152097292  48.16518738066335  3.382863392405572  2.9527407140620525  -37.3345510576289  6.34976700928443  57.38131051461086  21.611147349366632  120.000000
0.17235  0.000000  0.000000  0.000000  -39.2754293401207  2.468511988563477  -0.5118112731619285  48.32550663164495  4.186332819231677  3.384744529704348  -32.42458167651873  8.326496918033547  51.80600888234163  21.483588383385854  120.000000
0.2298  0.000000  0.000000  0.000000  -38.90852512543438  1.3309467675271562  -2.224496519898719  48.50654334015214  4.911438293238348  3.870813539134796  -28.47441836823994  10.297815826251629  47.13235053989929  21.61596334609106  120.000000
0.28725  0.000000  0.000000  0.000000  -38.69422209053779  0.4230037291577822  -3.7661424468998206  48.65535602340425  5.59925394075494  4.401904437018752  -25.031430502429284  12.375655211520774  42.89906859370445  21.944118441896407  120.000000
0.3447  0.000000  0.000000  0.000000  -38.646606974680225  -0.1939937736069036  -5.1124354408552595  48.73856427352553  6.282679080402859  4.959117272229849  -21.923341566380934  14.656966766519751  38.91801581046833  22.370198353818015  120.000000
0.40215  0.000000  0.000000  0.000000  -38.78027138534744  -0.4911813720826416  -6.2433869288410015  48.73339332540823  6.976789132432877  5.532468012627192  -19.07997827701723  17.213564651692543  35.100309704935924  22.786389976559526  120.000000
0.4596  0.000000  0.000000  0.000000  -39.104771141490204  -0.4718011957086844  -7.151387848234027  48.63772956848464  7.675228545834885  6.115187278028437  -16.468766424195742  20.085693088860527  31.395836017680562  23.10316021249074  120.000000
0.51705  0.000000  0.000000  0.000000  -39.610585231280666  -0.1646907489893076  -7.841351409318297  48.46950570926766  8.353272626289561  6.703284749128771  -14.091781591364017  23.278715397144182  27.799622669945876  23.26377008394233  120.000000
0.5745  0.000000  0.000000  0.000000  -40.27666157356711  0.37863918288572534  -8.325944325867106  48.25612169448603  8.97601976170003  7.2985819661775695  -11.9522575765057  26.76375596368786  24.318640606773965  23.24940885644472  120.000000
0.63195  0.000000  0.000000  0.000000  -41.07161179944528  1.096633335645541  -8.622659594350464  48.04236806610413  9.507672598336654  7.901319958252885  -10.02420799345907  30.484149364098936  20.940576309283326  23.072178368770217  120.000000
0.6894  0.000000  0.000000  0.000000  -41.963228550678565  1.923767731811504  -8.744306015725194  47.87842302067672  9.919614699365829  8.512055264578244  -8.258255152077883  34.36565386552656  17.629555601562007  22.761029352406574  120.000000
0.74685  0.000000  0.000000  0.000000  -42.91821006058533  2.801818378443265  -8.697191340887404  47.816249319689426  10.19414308319065  9.122413439651675  -6.604734191595512  38.32768786557262  14.343043147146208  22.3501083857613  120.000000
0.8043  0.000000  0.000000  0.000000  -43.90528736046211  3.6818176512971994  -8.47857838029469  47.89337717310192  10.329494370181523  9.717693671577317  -5.03351105533509  42.29294753729396  11.047790927259499  21.874259748905253  120.000000
0.86175  0.000000  0.000000  0.000000  -44.8933778589503  4.532242721483029  -8.077609454113476  48.12605921975287  10.33859334493205  10.280060803750967  -3.539140602959067  46.19528339759211  7.731366593235941  21.365430993191964  120.000000
0.9192  0.000000  0.000000  0.000000  -45.855416985685075  5.341491946553054  -7.481274535898511  48.50694859764542  10.247512299551172  10.788007867176667  -2.136509528209759  49.98271299075015  4.410670724149695  20.85376511722475  120.000000
0.97665  0.000000  0.000000  0.000000  -46.765666803037284  6.106780963353472  -6.677324778152258  49.00359011264836  10.08704243363759  11.22459258999542  -0.8532402914535785  53.6117515197781  1.138594611913049  20.361120333782996  120.000000
1.0341  0.000000  0.000000  0.000000  -47.600481194890925  6.830228075802666  -5.663673733370429  49.57088932237675  9.889280470458873  11.573554159764242  0.28522452342926014  57.04126269211082  -1.9993528394642093  19.90138480414567  120.000000
1.09155  0.000000  0.000000  0.000000  -48.340843814726526  7.513101166545361  -4.452882447951502  50.155049893190686  9.682624376437484  11.821350437800751  1.2606382725633514  60.22924574847777  -4.8961926097575255  19.476267738974343  120.000000
1.149  0.000000  0.000000  0.000000  -48.98019588525558  8.153038394452983  -3.07664396611151  50.70222876707574  9.487532435431529  11.957360436650609  2.0682804637701606  63.13448146924745  -7.448303949733286  19.08053882842089  120.000000
1.20645  0.000000  0.000000  0.000000  -49.51998277461856  8.742395307940036  -1.585161486328733  51.1701645154362  9.315528667856688  11.977844825678167  2.71949601014339  65.72198985164066  -9.582981447420773  18.707909199157935  120.000000
1.2639  0.000000  0.000000  0.000000  -49.96771459711293  9.268501101406915  -0.043602949297579095  51.53562330124571  9.168574109864286  11.889526070755123  3.239023960650709  67.96663027625368  -11.277637306700282  18.35706532022814  120.000000
1.32135  0.000000  0.000000  0.000000  -50.33185251740641  9.716313685985162  1.4719584775251107  51.79666220159788  9.041298562551408  11.708558263307483  3.655417344722448  69.85443686025049  -12.562450143298664  18.031819269819156  120.000000
1.3788  0.000000  0.000000  0.000000  -50.61793893584636  10.070731335400167  2.881791046952379  51.96721838619555  8.922546437245565  11.459056177025627  3.995141804070181  71.37791339772424  -13.50647033636379  17.740149919055774  120.000000
1.43625  0.000000  0.000000  0.000000  -50.82573704054954  10.320912841996964  4.105559713427547  52.070272160936355  8.797812100562703  11.168237057110101  4.278552909479562  72.53077497847212  -14.194128518476655  17.491122528859695  120.000000
1.4937  0.000000  0.000000  0.000000  -50.95017352120317  10.461186526561475  5.068170937294133  52.12737146788266  8.650738012569997  10.863560299171702  4.519658732225425  73.30147001511561  -14.702996985966283  17.29314696236054  120.000000
1.55115  0.000000  0.000000  0.000000  -50.98407232153  10.491652960570944  5.7023660657706765  52.153178321497364  8.46604552183181  10.569420207478652  4.725907922919217  73.67026988633586  -15.088968780351314  17.152443475913397  120.000000
1.6086  0.000000  0.000000  0.000000  -50.92085003837771  10.414937912267325  5.956132637237136  52.15240929496677  8.23284989299898  10.30680710514082  4.898702913710244  73.6096129955255  -15.382991581791858  17.07283471655459  120.000000
1.66605  0.000000  0.000000  0.000000  -50.7559867619691  10.233572326091116  5.79875305508928  52.1215349120132  7.950951675292532  10.092598473307717  5.032681873581026  73.08937541082972  -15.595029238940157  17.054642244360476  120.000000
1.7235  0.000000  0.000000  0.000000  -50.48653023398625  9.947379247907637  5.2292359697803406  52.05218139287454  7.636011598279296  9.93872329016531  5.114517586757149  72.08465609622189  -15.722709624814286  17.09107523218673  120.000000
1.78095  0.000000  0.000000  0.000000  -50.1112123680458  9.553733988036159  4.27991329114882  51.935104519810096  7.3225512721909585  9.850810261420968  5.1234667982258415  70.58333878175634  -15.758239434148317  17.16600067747894  120.000000
1.8384  0.000000  0.000000  0.000000  -49.6300122928723  9.051823602339034  3.014636128340273  51.76448727920535  7.059599045482162  9.82612786560508  5.032362298392946  68.58961989836183  -15.694658465234792  17.254216609281052  120.000000
1.89585  0.000000  0.000000  0.000000  -49.046931422899235  8.446507872508214  1.5209301856541966  51.53841238955158  6.9007525166614965  9.854709149051649  4.812058743785783  66.12377722755875  -15.528204309018943  17.328482141091918  120.000000
1.9533  0.000000  0.000000  0.000000  -48.371917530530055  7.753129860010163  -0.10286211083771009  51.259578096487594  6.892685917135615  9.919382987564665  4.43449766787185  63.222006889545206  -15.26125048079461  17.366100390903913  120.000000
2.01075  0.000000  0.000000  0.000000  -47.62412078225749  6.9965395968116555  -1.7594021312261143  50.93277833328717  7.064576813350077  9.999201056611456  3.8786826223266315  59.93561665253118  -14.902852123242107  17.356224272144253  120.000000
2.0682  0.000000  0.000000  0.000000  -46.82974510215448  6.207546957325757  -3.3647463097587775  50.5667197460684  7.422222280064629  10.072705378517142  3.138244895548932  56.330177712722545  -14.469772517732098  17.299926912957446  120.000000
2.1256500000000003  0.000000  0.000000  0.000000  -46.02065166705148  5.4155247276228415  -4.855911590990803  50.17328995143054  7.945815178607427  10.121167692534495  2.2268284487935777  52.48016594847602  -13.980513357178737  17.204085100136922  120.000000
2.1831  0.000000  0.000000  0.000000  -45.22857014766892  4.641110399420734  -6.195436115035647  49.76588425366278  8.593341294230735  10.131128947153488  1.1767008381472985  48.46158909522662  -13.441858346850708  17.071456696828474  120.000000
2.24055  0.000000  0.000000  0.000000  -44.47896100404999  3.8962117900845183  -7.371541758407262  49.36009315093301  9.304718811193764  10.094846896310852  0.03102907404119891  44.34584761206584  -12.830028162226451  16.89318539068017  120.000000
